<svg xmlns="http://www.w3.org/2000/svg" xmlns:xlink="http://www.w3.org/1999/xlink" width="24" height="24" viewBox="0 0 24 24"><defs><style>.a{fill:none;}.b{clip-path:url(#a);}.c{fill:#a4b2be;}</style><clipPath id="a"><path class="a" d="M17,22H1a1,1,0,0,1-1-1V16.39A3.482,3.482,0,0,0,1.96,17,3.428,3.428,0,0,0,4.4,15.99l1.09-1.07,1.07,1.07a3.544,3.544,0,0,0,4.89,0l1.08-1.07,1.07,1.07A3.428,3.428,0,0,0,16.04,17,3.481,3.481,0,0,0,18,16.39V21A1,1,0,0,1,17,22Zm-.97-6.5a1.938,1.938,0,0,1-1.38-.57L12.52,12.8l-2.14,2.13a2.005,2.005,0,0,1-2.769,0L5.48,12.8,3.34,14.93a1.93,1.93,0,0,1-1.38.57A1.962,1.962,0,0,1,0,13.54V12A3,3,0,0,1,3,9H8V7h2V9h5a2.981,2.981,0,0,1,2.99,3v1.54A1.962,1.962,0,0,1,16.03,15.5ZM9,6A2,2,0,0,1,7,4a1.888,1.888,0,0,1,.29-1.03L9,0l1.71,2.97A1.888,1.888,0,0,1,11,4,2,2,0,0,1,9,6Z" transform="translate(3)"/></clipPath></defs><rect class="a" width="24" height="24"/><g transform="translate(3 1.5)"><path class="a" d="M17,22H1a1,1,0,0,1-1-1V16.39A3.482,3.482,0,0,0,1.96,17,3.428,3.428,0,0,0,4.4,15.99l1.09-1.07,1.07,1.07a3.544,3.544,0,0,0,4.89,0l1.08-1.07,1.07,1.07A3.428,3.428,0,0,0,16.04,17,3.481,3.481,0,0,0,18,16.39V21A1,1,0,0,1,17,22Zm-.97-6.5a1.938,1.938,0,0,1-1.38-.57L12.52,12.8l-2.14,2.13a2.005,2.005,0,0,1-2.769,0L5.48,12.8,3.34,14.93a1.93,1.93,0,0,1-1.38.57A1.962,1.962,0,0,1,0,13.54V12A3,3,0,0,1,3,9H8V7h2V9h5a2.981,2.981,0,0,1,2.99,3v1.54A1.962,1.962,0,0,1,16.03,15.5ZM9,6A2,2,0,0,1,7,4a1.888,1.888,0,0,1,.29-1.03L9,0l1.71,2.97A1.888,1.888,0,0,1,11,4,2,2,0,0,1,9,6Z" transform="translate(0 0)"/><g class="b" transform="translate(-3 0)"><rect class="c" width="24" height="24"/><rect class="c" width="24" height="24"/></g></g></svg>