<svg xmlns="http://www.w3.org/2000/svg" xmlns:xlink="http://www.w3.org/1999/xlink" width="24" height="24" viewBox="0 0 24 24"><defs><style>.a{fill:none;}.b{clip-path:url(#a);}.c{fill:#a4b2be;}</style><clipPath id="a"><path class="a" d="M15,20H10A10,10,0,1,1,20,10v1.43a3.594,3.594,0,0,1-1.011,2.524A3.443,3.443,0,0,1,16.5,15a3.713,3.713,0,0,1-2.96-1.471A4.941,4.941,0,0,1,10,15a5,5,0,1,1,5-5v1.43A1.618,1.618,0,0,0,16.5,13,1.618,1.618,0,0,0,18,11.43V10a8.107,8.107,0,0,0-8-8,8.107,8.107,0,0,0-8,8,8.107,8.107,0,0,0,8,8h5v2ZM10,7a3,3,0,1,0,3,3A3,3,0,0,0,10,7Z" transform="translate(2 2)"/></clipPath></defs><rect class="a" width="24" height="24"/><g transform="translate(2 2)"><path class="a" d="M15,20H10A10,10,0,1,1,20,10v1.43a3.594,3.594,0,0,1-1.011,2.524A3.443,3.443,0,0,1,16.5,15a3.713,3.713,0,0,1-2.96-1.471A4.941,4.941,0,0,1,10,15a5,5,0,1,1,5-5v1.43A1.618,1.618,0,0,0,16.5,13,1.618,1.618,0,0,0,18,11.43V10a8.107,8.107,0,0,0-8-8,8.107,8.107,0,0,0-8,8,8.107,8.107,0,0,0,8,8h5v2ZM10,7a3,3,0,1,0,3,3A3,3,0,0,0,10,7Z" transform="translate(0 0)"/><g class="b" transform="translate(-2 -2)"><rect class="c" width="24" height="24"/><rect class="c" width="24" height="24"/></g></g></svg>