<svg xmlns="http://www.w3.org/2000/svg" width="24" height="24" viewBox="0 0 24 24"><defs><style>.a{fill:none;}.b{isolation:isolate;}.c{fill:#a4b2be;fill-rule:evenodd;}</style></defs><rect class="a" width="24" height="24"/><g class="b" transform="translate(2.001 16)"><path class="c" d="M18-7a1,1,0,0,1,.993.883L19-6h0v5H18V-3H15v2H14V-6a1,1,0,0,1,.883-.993L15-7ZM15-6v2h3V-6Z"/><path class="c" d="M10.5-7a1,1,0,0,1,.993.883L11.5-6h0v2a1,1,0,0,1-.883.993L10.5-3H9.707l1.914,1.914a1,1,0,0,1-1.414,0L8.292-3H7.5v2h-1V-6a1,1,0,0,1,.883-.993L7.5-7Zm-3,1v2h3V-6Z"/><path class="c" d="M1-7v2.207h.793l.187-.185a1.006,1.006,0,0,0,.234-.234h0l.079-.079h0L3.707-6.707a1,1,0,0,1,1.414,0h0L3-4.586a2.068,2.068,0,0,1-.723.591A1.967,1.967,0,0,1,3-3.4l0,0L5.121-1.286a1,1,0,0,1-1.414,0L2.293-2.7h0L2.215-2.78a1.006,1.006,0,0,0-.234-.234L1.793-3.2H1V-1H0V-3.627H0v-.738H0V-7Z"/></g></svg>