<svg xmlns="http://www.w3.org/2000/svg" width="27" height="24" viewBox="0 0 27 24"><defs><style>.a{fill:#e42215;}.b{fill:none;}</style></defs><path class="a" d="M144.386,181.8a27.071,27.071,0,0,1-2.292-1.72c-.73-.635-1.38-1.25-1.946-1.836A16.692,16.692,0,0,0,141.416,174c0-2.766-1.149-3.333-2.875-3.333-1.311,0-2.875.592-2.875,3.413,0,1.243.783,2.753,2.336,4.508-.38,1.008-.826,2.171-1.328,3.482a17.683,17.683,0,0,1-.781,1.75c-.225.087-.445.176-.656.268-.762.331-1.485.629-2.156.906-3.06,1.26-5.082,2.093-5.082,3.739,0,1.195,1.493,1.934,2.875,1.934,1.782,0,4.472-2.069,6.438-5.556a42.747,42.747,0,0,1,6.578-1.543c1.6,1.073,3.376,2.1,4.234,2.1,2.376,0,2.875-1.195,2.875-2.2,0-1.97-2.589-1.97-3.833-1.97A25.963,25.963,0,0,0,144.386,181.8ZM130.875,189a1.657,1.657,0,0,1-.958-.268c0-.591,2.026-1.426,3.986-2.233l.379-.155C132.842,188.158,131.419,189,130.875,189Zm6.708-14.92c0-1.746.623-1.746.958-1.746.678,0,.958,0,.958,1.667a11.945,11.945,0,0,1-.763,2.6A4.747,4.747,0,0,1,137.583,174.079Zm.735,8.956q.09-.217.174-.439c.356-.928.676-1.761.961-2.511q.6.571,1.286,1.17c.18.156.625.508,1.219.948C140.776,182.427,139.519,182.7,138.318,183.036Zm10.765.434c0,.374,0,.53-.889.535a7.424,7.424,0,0,1-1.61-.8c.27-.026.47-.039.582-.039C148.582,183.166,148.984,183.286,149.083,183.469Z" transform="translate(-126 -168.666)"/><rect class="b" width="27" height="24"/></svg>