<svg xmlns="http://www.w3.org/2000/svg" xmlns:xlink="http://www.w3.org/1999/xlink" width="24" height="24" viewBox="0 0 24 24"><defs><style>.a{fill:none;}.b{clip-path:url(#a);}.c{fill:#a4b2be;}</style><clipPath id="a"><path class="a" d="M3.62,7.79a15.149,15.149,0,0,0,6.59,6.59l2.2-2.2a.994.994,0,0,1,1.02-.24,11.407,11.407,0,0,0,3.57.57,1,1,0,0,1,1,1V17a1,1,0,0,1-1,1A17,17,0,0,1,0,1,1,1,0,0,1,1,0H4.5a1,1,0,0,1,1,1,11.36,11.36,0,0,0,.57,3.57,1,1,0,0,1-.25,1.02Z" transform="translate(3 3)"/></clipPath></defs><rect class="a" width="24" height="24"/><g transform="translate(3 3)"><path class="a" d="M3.62,7.79a15.149,15.149,0,0,0,6.59,6.59l2.2-2.2a.994.994,0,0,1,1.02-.24,11.407,11.407,0,0,0,3.57.57,1,1,0,0,1,1,1V17a1,1,0,0,1-1,1A17,17,0,0,1,0,1,1,1,0,0,1,1,0H4.5a1,1,0,0,1,1,1,11.36,11.36,0,0,0,.57,3.57,1,1,0,0,1-.25,1.02Z"/><g class="b" transform="translate(-3 -3)"><rect class="c" width="24" height="24"/><rect class="c" width="24" height="24"/></g></g></svg>