<svg xmlns="http://www.w3.org/2000/svg" xmlns:xlink="http://www.w3.org/1999/xlink" width="383" height="383" viewBox="0 0 383 383"><defs><style>.a{fill:none;}.b{clip-path:url(#a);}.c{fill:#0077be;}.d{fill:#cc0806;}.e{fill:#00579c;}</style><clipPath id="a"><rect class="a" width="383" height="383" rx="51"/></clipPath></defs><g class="b"><g transform="translate(8.364 0)"><g transform="translate(0 0)"><path class="c" d="M58.565,129H27.228a3.119,3.119,0,0,1-3.063-3.063v-86a3.119,3.119,0,0,1,3.063-3.063H58.565a3.119,3.119,0,0,1,3.063,3.063v85.922A3.135,3.135,0,0,1,58.565,129Z" transform="translate(72.674 123.659)"/><path class="d" d="M344.508,193.755a4.825,4.825,0,0,1,0-4.4l21.677-42.411a19.128,19.128,0,0,0-8.325-25.761l-42.49-21.52a4.785,4.785,0,0,1-2.592-3.613L305.4,49.008a19.008,19.008,0,0,0-18.849-16.1,18.379,18.379,0,0,0-2.984.236L236.517,40.6a5.252,5.252,0,0,1-4.241-1.335L198.661,5.576a19.151,19.151,0,0,0-27.017,0L137.951,39.269a4.743,4.743,0,0,1-3.456,1.414h0a2.672,2.672,0,0,1-.785-.079L86.665,33.143a19.881,19.881,0,0,0-2.984-.236,19.009,19.009,0,0,0-18.849,16.1L57.448,96.053a4.785,4.785,0,0,1-2.592,3.613l-42.49,21.6a19.128,19.128,0,0,0-8.325,25.761l21.677,42.411a4.825,4.825,0,0,1,0,4.4L4.042,236.245a19.128,19.128,0,0,0,8.325,25.761l42.411,21.441a4.785,4.785,0,0,1,2.592,3.613L64.752,334.1A19.008,19.008,0,0,0,83.6,350.2a18.384,18.384,0,0,0,2.984-.236l47.045-7.461a5.252,5.252,0,0,1,4.241,1.335l33.615,33.693a19.151,19.151,0,0,0,27.017,0l33.615-33.693a4.7,4.7,0,0,1,4.241-1.335l47.045,7.461a20.116,20.116,0,0,0,3.063.236,19.009,19.009,0,0,0,18.849-16.1L312.7,287.06a4.785,4.785,0,0,1,2.592-3.613l42.49-21.6a19.128,19.128,0,0,0,8.325-25.761Zm9.268,52.621a4.591,4.591,0,0,1-2.435,2.827l-42.49,21.6a19.139,19.139,0,0,0-10.21,14.058l-7.383,47.045a4.833,4.833,0,0,1-5.576,4.005l-47.045-7.461a19.129,19.129,0,0,0-16.493,5.341L188.53,367.484a5.085,5.085,0,0,1-6.911,0L148,333.79a19.277,19.277,0,0,0-13.509-5.576,18.38,18.38,0,0,0-2.984.236l-47.045,7.461a4.888,4.888,0,0,1-5.576-4.084l-7.383-47.045A19.139,19.139,0,0,0,61.3,270.724l-42.49-21.6a4.8,4.8,0,0,1-2.121-6.519L38.363,200.2a19.3,19.3,0,0,0,0-17.357L16.687,140.428a4.686,4.686,0,0,1-.314-3.691,4.591,4.591,0,0,1,2.435-2.827l42.49-21.6a19.139,19.139,0,0,0,10.21-14.058l7.383-47.045A4.833,4.833,0,0,1,84.466,47.2l47.045,7.461a19.881,19.881,0,0,0,2.984.236h0A19.277,19.277,0,0,0,148,49.322l33.615-33.693a5.084,5.084,0,0,1,6.911,0l33.615,33.693a19.36,19.36,0,0,0,16.493,5.341L285.682,47.2a4.89,4.89,0,0,1,5.576,4.005l7.383,47.045a19.139,19.139,0,0,0,10.21,14.058l42.49,21.6a4.8,4.8,0,0,1,2.121,6.519l-21.677,42.411a19.3,19.3,0,0,0,0,17.357l21.677,42.411A4.85,4.85,0,0,1,353.776,246.377Z" transform="translate(-1.921 0)"/><path class="e" d="M177.42,77.177H142.077V52.438c0-12.488-3.77-21.6-11.153-27.017-11.467-8.4-26.468-4.084-28.2-3.534a7.07,7.07,0,0,0-4.948,6.754V59.428c0,21.441-24.5,29.374-27.174,30.159a13.294,13.294,0,0,0-9.66-4.241H35.814A13.307,13.307,0,0,0,22.541,98.618v79.717a13.307,13.307,0,0,0,13.273,13.273H60.947a13.872,13.872,0,0,0,7.932-2.592,27.125,27.125,0,0,0,18.457,7.226h75.4c17.907,0,29.845-9.817,31.887-26.311l10.132-64.4a5.184,5.184,0,0,0,.079-1.1A27.453,27.453,0,0,0,177.42,77.177ZM59.926,177.472H36.678V99.639H59.926Zm120.557-9.582v.236c-.393,3.456-1.728,13.9-17.75,13.9h-75.4A13.055,13.055,0,0,1,74.3,168.989v-65.58h.079c1.571-.393,37.777-10.917,37.777-43.982V34.609c3.22-.236,7.383,0,10.524,2.278,3.534,2.592,5.341,7.854,5.341,15.551V84.324a7.173,7.173,0,0,0,7.147,7.147h42.49a13.014,13.014,0,0,1,13.037,12.566Z" transform="translate(67.229 68.041)"/></g></g></g></svg>